<svg width="238" height="243" viewBox="0 0 238 243" fill="none" xmlns="http://www.w3.org/2000/svg">
<g clip-path="url(#clip0_109_298)">
<path d="M103.16 239.055L97.5912 239.055L94.9424 217.541L103.161 217.542L103.16 239.055Z" fill="#A0616A"/>
<path d="M84.0818 238.929C83.9085 239.221 83.817 240.165 83.817 240.505C83.817 241.551 84.6631 242.398 85.7069 242.398H102.951C103.663 242.398 104.241 241.82 104.241 241.107V240.388C104.241 240.388 105.094 238.226 103.337 235.562C103.337 235.562 101.154 237.648 97.8927 234.381L96.9309 232.636L89.9683 237.736L86.1091 238.212C85.2648 238.316 84.5162 238.196 84.0819 238.929H84.0818Z" fill="#464242"/>
<path d="M78.2106 239.055L72.6423 239.055L69.9935 217.541L78.2118 217.542L78.2106 239.055Z" fill="#A0616A"/>
<path d="M59.1329 238.929C58.9596 239.221 58.8681 240.165 58.8681 240.505C58.8681 241.551 59.7142 242.398 60.758 242.398H78.0024C78.7144 242.398 79.2917 241.82 79.2917 241.107V240.388C79.2917 240.388 80.1447 238.226 78.3884 235.562C78.3884 235.562 76.2056 237.648 72.9438 234.381L71.982 232.636L65.0194 237.736L61.1602 238.212C60.3159 238.316 59.5673 238.196 59.133 238.929H59.1329Z" fill="#464242"/>
<path d="M103.638 104.088L108.822 117.394L104.772 223.682H93.4313L83.2249 127.78L80.7948 224.006L69.7784 223.682L57.79 116.907L65.7283 107.334L103.638 104.088Z" fill="#464242"/>
<path d="M79.1748 28.632L92.7833 27.6584L96.9954 34.4738L109.632 38.0438L104.934 70.9848L109.956 120.153C109.956 120.153 91.8112 117.557 90.5152 122.749C89.2191 127.942 57.466 117.557 57.466 117.557L68.3204 83.9665L67.3484 57.6786L64.4323 42.4251L77.7167 36.2588L79.1748 28.632Z" fill="#E6E6E6"/>
<path d="M73.0186 38.3683C73.0186 38.3683 62.1744 38.206 60.7112 42.7496C59.2481 47.2932 54.3879 78.7738 54.3879 78.7738L50.6618 92.5668L67.3484 84.291L63.7842 78.7827L75.4486 56.3804L73.0186 38.3683H73.0186Z" fill="#E6E6E6"/>
<path d="M79.6526 88.8346C81.4457 88.8365 83.1126 87.8013 83.8097 86.1467C84.3369 84.8953 84.2872 83.6947 83.8927 82.6654C84.0197 82.6127 84.1455 82.5579 84.2755 82.5113C84.0845 82.4338 83.899 82.3462 83.7135 82.2585C83.0676 80.9691 81.8293 80.0333 80.3544 79.806C78.5275 77.8458 77.4045 75.2193 77.3928 72.3286C77.3687 66.371 82.1936 61.3947 88.1398 61.2518C88.1866 61.2506 88.2333 61.2498 88.28 61.2493C90.9427 61.2186 93.3581 62.7104 94.7071 65.01C95.4943 66.3518 96.9489 67.2525 98.6155 67.2525C99.8913 67.2525 101.042 66.7242 101.865 65.8743C103.658 64.0227 105.902 62.645 108.442 62.2223C110.111 61.9447 111.837 61.84 113.603 61.928C125.696 62.53 136.099 73.2648 136.357 85.3889C136.645 98.8927 125.802 109.93 112.386 109.93C105.405 109.93 99.1239 106.94 94.7434 102.17C92.7986 100.052 90.0734 98.8656 87.2009 98.8949C87.1716 98.8952 87.1424 98.8954 87.1131 98.8954C82.4605 98.8954 78.6888 95.1175 78.6888 90.4573C78.6888 90.1988 78.7016 89.9436 78.7256 89.6915C78.7706 89.2203 79.18 88.8341 79.6527 88.8346L79.6526 88.8346Z" fill="#1ED760"/>
<path d="M236.363 178.697C235.774 177.703 233.228 178.767 232.76 177.865C232.294 176.966 234.659 175.596 236.011 172.468C236.255 171.904 237.791 168.348 236.654 167.251C234.498 165.171 224.636 173.753 221.184 170.945C220.427 170.328 219.898 169.098 217.605 167.1C216.693 166.306 216.142 165.947 215.608 166.08C214.851 166.27 214.791 167.285 213.979 169.281C212.761 172.275 212.041 172.094 211.331 174.482C210.804 176.255 210.925 177.286 210.305 177.487C209.428 177.771 208.62 175.89 207.509 176.059C206.375 176.231 205.689 178.42 205.472 180.06C205.066 183.136 206.194 185.166 206.819 187.301C207.498 189.621 207.901 193.149 206.332 198.143L190.803 241.968C194.232 232.976 204.158 208.324 208.33 199.163C209.534 196.518 210.863 193.836 213.593 192.777C216.222 191.758 219.831 192.366 224.433 191.256C224.971 191.126 226.462 190.746 226.65 189.868C226.805 189.141 225.928 188.736 226.063 188.055C226.244 187.143 227.969 187.132 230.089 186.079C231.584 185.336 232.515 184.453 233.316 183.694C233.557 183.465 237.146 180.02 236.363 178.697Z" fill="#F2F2F2"/>
<path d="M175.266 201.768C174.609 201.771 174.396 203.33 173.819 203.3C173.244 203.27 173.255 201.711 172.112 200.144C171.906 199.862 170.607 198.081 169.741 198.323C168.1 198.783 169.46 206.107 167.088 206.994C166.567 207.188 165.812 207.093 164.171 207.644C163.519 207.863 163.184 208.031 163.095 208.331C162.97 208.758 163.45 209.081 164.194 210.056C165.309 211.518 165.013 211.82 165.978 212.858C166.695 213.629 167.235 213.867 167.154 214.23C167.041 214.743 165.886 214.597 165.648 215.192C165.405 215.8 166.28 216.768 167.021 217.348C168.411 218.435 169.731 218.467 170.958 218.775C172.29 219.111 174.135 219.93 176.13 222.143L193.124 242.422C189.706 238.142 180.491 226.149 177.206 221.455C176.257 220.1 175.327 218.672 175.596 217.025C175.855 215.439 177.194 213.84 177.978 211.257C178.069 210.955 178.314 210.112 177.937 209.767C177.626 209.481 177.174 209.795 176.88 209.532C176.485 209.18 176.977 208.329 177.073 206.983C177.14 206.034 176.976 205.321 176.835 204.708C176.793 204.524 176.14 201.765 175.266 201.768V201.768Z" fill="#F2F2F2"/>
<path d="M188.371 204.715L187.975 201.176L188.156 200.908C188.993 199.668 189.419 198.456 189.424 197.306C189.425 197.123 189.417 196.94 189.408 196.754C189.374 196.016 189.331 195.098 189.809 194.029C190.077 193.432 190.829 192.052 191.96 192.223C192.265 192.265 192.495 192.405 192.67 192.569C192.696 192.528 192.722 192.487 192.75 192.443C193.102 191.905 193.381 191.674 193.65 191.452C193.856 191.281 194.07 191.105 194.404 190.688C194.551 190.505 194.665 190.345 194.761 190.21C195.054 189.801 195.436 189.314 196.11 189.323C196.83 189.357 197.207 189.953 197.457 190.348C197.903 191.052 198.105 191.56 198.239 191.896C198.288 192.019 198.343 192.158 198.371 192.2C198.603 192.542 200.489 192.223 201.2 192.106C202.796 191.84 204.177 191.609 204.745 192.617C205.153 193.338 204.85 194.292 203.818 195.527C203.497 195.912 203.155 196.204 202.851 196.433C203.103 196.583 203.328 196.814 203.419 197.176C203.634 198.034 202.898 198.893 201.232 199.734C200.818 199.944 200.261 200.225 199.481 200.36C199.113 200.423 198.782 200.438 198.499 200.447C198.493 200.611 198.455 200.788 198.355 200.971C198.062 201.51 197.453 201.766 196.536 201.704C195.526 201.651 194.694 201.458 193.961 201.289C193.32 201.142 192.768 201.017 192.335 201.046C191.531 201.111 190.912 201.756 190.185 202.591L188.371 204.715Z" fill="#F2F2F2"/>
<path d="M190.207 183.645L186.89 184.926L186.585 184.819C185.175 184.323 183.897 184.217 182.785 184.504C182.608 184.549 182.434 184.604 182.256 184.66C181.552 184.88 180.676 185.154 179.522 184.962C178.878 184.854 177.354 184.475 177.232 183.336C177.196 183.03 177.273 182.772 177.387 182.561C177.341 182.546 177.295 182.531 177.245 182.515C176.636 182.31 176.342 182.099 176.06 181.895C175.842 181.738 175.618 181.576 175.131 181.358C174.917 181.262 174.733 181.192 174.578 181.133C174.109 180.953 173.542 180.706 173.379 180.051C173.23 179.345 173.71 178.829 174.028 178.486C174.595 177.875 175.033 177.551 175.325 177.336C175.431 177.257 175.551 177.169 175.585 177.131C175.856 176.819 175.069 175.073 174.777 174.414C174.114 172.935 173.541 171.656 174.371 170.849C174.964 170.271 175.961 170.322 177.416 171.009C177.869 171.223 178.238 171.48 178.536 171.717C178.617 171.435 178.783 171.158 179.11 170.978C179.883 170.552 180.9 171.047 182.135 172.448C182.443 172.795 182.854 173.264 183.183 173.986C183.337 174.326 183.436 174.643 183.516 174.915C183.676 174.879 183.857 174.871 184.059 174.921C184.653 175.068 185.055 175.593 185.228 176.498C185.433 177.49 185.458 178.345 185.481 179.099C185.501 179.757 185.521 180.323 185.659 180.735C185.925 181.497 186.704 181.934 187.696 182.426L190.207 183.645L190.207 183.645Z" fill="#F2F2F2"/>
<path d="M188.371 173.22L187.975 169.681L188.156 169.413C188.993 168.172 189.419 166.961 189.424 165.811C189.425 165.628 189.417 165.445 189.408 165.259C189.374 164.521 189.331 163.603 189.809 162.533C190.077 161.937 190.829 160.556 191.96 160.727C192.265 160.77 192.495 160.91 192.67 161.074C192.696 161.033 192.722 160.992 192.75 160.948C193.102 160.409 193.381 160.179 193.65 159.957C193.856 159.786 194.07 159.61 194.404 159.193C194.551 159.01 194.665 158.849 194.761 158.714C195.054 158.306 195.436 157.819 196.11 157.828C196.83 157.862 197.207 158.458 197.457 158.853C197.903 159.557 198.105 160.064 198.239 160.401C198.288 160.524 198.343 160.662 198.371 160.705C198.603 161.047 200.489 160.727 201.2 160.611C202.796 160.344 204.177 160.114 204.745 161.122C205.153 161.843 204.85 162.797 203.818 164.032C203.497 164.416 203.155 164.709 202.851 164.938C203.103 165.088 203.328 165.319 203.419 165.681C203.634 166.539 202.898 167.398 201.232 168.239C200.818 168.449 200.261 168.729 199.481 168.864C199.113 168.927 198.782 168.943 198.499 168.951C198.493 169.115 198.455 169.293 198.355 169.476C198.062 170.014 197.453 170.271 196.536 170.209C195.526 170.156 194.694 169.963 193.961 169.794C193.32 169.647 192.768 169.522 192.335 169.551C191.531 169.616 190.912 170.26 190.185 171.096L188.371 173.22Z" fill="#F2F2F2"/>
<path d="M191.986 241.911L191.246 241.446L191.066 240.59L191.246 241.446L190.382 241.545C190.369 241.465 190.322 241.28 190.251 240.991C189.865 239.409 188.687 234.594 187.704 227.011C187.018 221.717 186.63 216.275 186.55 210.832C186.47 205.382 186.727 201.255 186.934 197.938C187.09 195.437 187.279 193.055 187.465 190.734C187.96 184.535 188.426 178.679 188.079 172.196C188.003 170.749 187.841 167.736 186.084 164.531C185.065 162.672 183.661 161.021 181.911 159.627L182.999 158.256C184.931 159.798 186.484 161.626 187.616 163.69C189.564 167.244 189.74 170.527 189.824 172.104C190.178 178.701 189.706 184.614 189.206 190.873C189.022 193.185 188.832 195.556 188.677 198.048C188.473 201.334 188.218 205.424 188.297 210.805C188.375 216.182 188.759 221.558 189.436 226.785C190.406 234.273 191.567 239.016 191.948 240.575C192.151 241.407 192.194 241.581 191.986 241.911Z" fill="#F2F2F2"/>
<path d="M178.707 162.407C178.635 162.407 178.563 162.405 178.489 162.4C177.002 162.32 175.624 161.428 174.394 159.75C173.818 158.96 173.523 158.06 172.934 156.264C172.843 155.987 172.399 154.583 172.13 152.65C171.953 151.387 171.975 150.859 172.225 150.393C172.502 149.873 172.951 149.511 173.456 149.267C173.434 149.099 173.452 148.927 173.524 148.751C173.822 148.021 174.614 148.117 175.042 148.163C175.258 148.19 175.529 148.226 175.82 148.211C176.279 148.189 176.526 148.052 176.899 147.847C177.257 147.65 177.701 147.406 178.361 147.271C179.661 146.999 180.75 147.368 181.109 147.49C182.998 148.12 183.93 149.591 185.008 151.295C185.223 151.637 185.961 152.881 186.448 154.586C186.799 155.816 186.75 156.363 186.644 156.77C186.429 157.605 185.921 158.084 184.633 159.14C183.287 160.245 182.611 160.799 182.031 161.136C180.681 161.917 179.833 162.407 178.707 162.407V162.407Z" fill="#F2F2F2"/>
<path d="M119.514 81.6947L38.8354 66.4412L38.5113 72.283L118.542 91.4309L119.514 81.6947Z" fill="#1ED760"/>
<path d="M39.8074 67.4148L38.8354 66.4412C38.8354 66.4412 34.6232 64.4939 34.6232 64.1694C34.6232 63.9663 28.4033 61.856 23.7497 60.3055C21.1508 59.4396 18.4062 61.1531 18.0361 63.8714L17.4529 68.1548C17.1043 70.7161 19.0336 73.0214 21.6123 73.1247L33.0031 73.5811L38.5113 72.2829L39.8074 67.4148Z" fill="#1ED760"/>
<path d="M119.352 83.4797L119.545 82.6711L38.8142 67.212L38.6734 68.2262L119.352 83.4797Z" fill="#464242"/>
<path d="M119.167 85.0149L119.352 84.1287L38.7264 68.8122L38.6734 69.8489L119.167 85.0149Z" fill="#464242"/>
<path d="M118.982 86.8547L119.028 85.4269L38.6631 69.9772L38.6734 70.8225L118.982 86.8547Z" fill="#464242"/>
<path d="M118.767 88.9915L118.704 87.6987L38.5458 71.142L38.4768 71.4589L118.767 88.9915Z" fill="#464242"/>
<path d="M118.766 90.2871L118.704 89.3214L38.6664 71.6776L38.5946 71.9939L118.766 90.2871Z" fill="#464242"/>
<path d="M72.4063 36.2991L76.4207 34.0726L78.1619 69.6866L77.5547 74.0679C77.5547 74.0679 67.4198 46.0757 72.4063 36.2991H72.4063Z" fill="#464242"/>
<path d="M86.141 25.2243C91.6884 25.2243 96.1854 20.72 96.1854 15.1635C96.1854 9.60711 91.6884 5.10274 86.141 5.10274C80.5937 5.10274 76.0967 9.60711 76.0967 15.1635C76.0967 20.72 80.5937 25.2243 86.141 25.2243Z" fill="#A0616A"/>
<path d="M77.5547 21.1676L79.956 23.0877L77.2307 12.7295C77.2307 12.7295 84.845 12.5672 85.493 8.34816C85.493 8.34816 91.4872 8.18589 93.1073 8.18589C94.7273 8.18589 95.4583 18.9231 95.4583 18.9231C95.4583 18.9231 98.6155 10.1331 95.3754 5.58955C92.1352 1.04596 93.2693 3.80457 92.6213 2.18186C91.9732 0.559153 85.331 -0.933231 81.1189 0.721423C76.9067 2.37608 76.7447 4.73476 75.4487 4.75648C74.1526 4.7782 69.6164 11.269 73.8286 16.4617C78.0408 21.6544 77.5547 21.1676 77.5547 21.1676Z" fill="#464242"/>
<path d="M108.241 87.1887C109.431 86.2372 110.309 85.0953 110.803 83.9666L122.716 75.6199L118.585 70.0581L106.945 79.1238C105.737 79.3561 104.43 79.9593 103.24 80.9108C100.52 83.0845 99.4348 86.252 100.816 87.9856C102.197 89.7192 105.521 89.3624 108.241 87.1887Z" fill="#A0616A"/>
<path d="M62.6 74.4926C61.7166 75.7353 61.1867 77.0749 61.0213 78.2963L51.8593 89.6027L57.3581 93.8121L66.06 81.8897C67.1581 81.3334 68.2485 80.3936 69.1319 79.1508C71.15 76.3118 71.3237 72.9675 69.52 71.6811C67.7163 70.3948 64.6181 71.6535 62.6 74.4926L62.6 74.4926Z" fill="#A0616A"/>
<path d="M104.448 40.1533C104.448 40.1533 107.364 35.2852 110.28 38.206C112.587 40.5173 125.242 55.2247 130.423 61.2628C131.852 62.928 132.637 65.0496 132.637 67.2452C132.637 70.6416 130.765 73.7604 127.77 75.3532L111.576 83.9665L107.04 77.1511L120.972 67.0903L99.5875 55.4068L104.448 40.1533V40.1533Z" fill="#E6E6E6"/>
<path d="M53.2411 85.0149L50.6618 92.5668L58.114 96.4613L63.7842 92.5668L67.3484 84.291L56.818 81.2079" fill="#E6E6E6"/>
<path d="M173.72 12.6341L149.241 19.2943L152.803 35.2038C151.651 34.4297 150.266 33.9773 148.775 33.9773C144.777 33.9773 141.536 37.2236 141.536 41.2282C141.536 45.2328 144.777 48.4791 148.775 48.4791C152.773 48.4791 156.014 45.2328 156.014 41.2282C156.014 39.8363 155.615 38.5407 154.937 37.4365L152.113 24.8229L173.23 18.1729L175.161 27.5687C174.002 26.7789 172.603 26.3164 171.095 26.3164C167.097 26.3164 163.856 29.5628 163.856 33.5673C163.856 37.5719 167.097 40.8182 171.095 40.8182C175.093 40.8182 178.334 37.5719 178.334 33.5673C178.334 32.1606 177.928 30.8519 177.236 29.7402L173.72 12.6341Z" fill="#1ED760"/>
<path d="M197.726 27.5061C193.77 27.5061 190.562 30.7187 190.562 34.6817C190.562 35.802 190.826 36.8581 191.283 37.8028L195.372 54.6965L197.693 54.1329L194.539 41.1008C195.5 41.5806 196.579 41.8573 197.726 41.8573C201.683 41.8573 204.89 38.6447 204.89 34.6817C204.89 30.7187 201.683 27.5061 197.726 27.5061Z" fill="#1ED760"/>
<path d="M226.88 64.7396L222.821 48.4791L220.357 49.0592L223.532 61.778C222.555 61.3351 221.47 61.0806 220.321 61.0806C216.12 61.0806 212.715 64.3878 212.715 68.4675C212.715 72.5472 216.12 75.8544 220.321 75.8544C224.522 75.8544 227.927 72.5472 227.927 68.4675C227.927 67.106 227.542 65.8348 226.88 64.7396V64.7396Z" fill="#1ED760"/>
<path d="M237.5 242.499C237.5 242.776 237.276 243 236.999 243H0.5V241.997H236.999C237.276 241.997 237.5 242.222 237.5 242.499L237.5 242.499Z" fill="#E6E6E6"/>
</g>
<defs>
<clipPath id="clip0_109_298">
<rect width="237" height="243" fill="white" transform="translate(0.5)"/>
</clipPath>
</defs>
</svg>
