<svg width="325" height="243" viewBox="0 0 325 243" fill="none" xmlns="http://www.w3.org/2000/svg">
<g clip-path="url(#clip0_111_745)">
<path d="M237.314 230.887H230.847L227.77 205.935H237.314V230.887Z" fill="#9E616A"/>
<path d="M240.727 242.095H236.09L235.262 237.715L233.142 242.095H220.842C220.253 242.095 219.678 241.907 219.204 241.557C218.729 241.208 218.378 240.715 218.202 240.152C218.027 239.589 218.036 238.985 218.228 238.427C218.421 237.87 218.786 237.388 219.271 237.053L229.093 230.267V225.839L239.424 226.456L240.727 242.095Z" fill="#464242"/>
<path d="M275.732 222.723L270.543 226.583L253.19 208.397L260.849 202.699L275.732 222.723Z" fill="#9E616A"/>
<path d="M285.157 229.68L281.435 232.448L278.158 229.427L279.07 234.207L269.2 241.55C268.727 241.902 268.154 242.093 267.564 242.096C266.975 242.099 266.4 241.914 265.923 241.566C265.446 241.219 265.093 240.729 264.915 240.167C264.736 239.605 264.742 239 264.932 238.442L268.766 227.133L266.124 223.579L274.783 217.907L285.157 229.68Z" fill="#464242"/>
<path d="M244.843 102.147C244.843 102.147 257.112 112.751 251.451 142.981L244.54 172.602L267.079 210.008L259.892 218.755L230.591 178.266L219.973 153.35L216.994 109.004L244.843 102.147Z" fill="#464242"/>
<path d="M225.825 160.451L225.087 171.884L227.346 220.606L237.973 218.755L240.004 184.065L225.825 160.451Z" fill="#464242"/>
<path d="M89.451 236.753L95.234 236.753L97.9848 214.439L89.4502 214.439L89.451 236.753Z" fill="#FFB6B6"/>
<path d="M87.9761 234.865L89.6038 234.864L95.9587 232.279L99.3647 234.864H99.3652C101.29 234.864 103.136 235.629 104.497 236.991C105.858 238.352 106.623 240.199 106.623 242.124V242.36L87.9764 242.361L87.9761 234.865Z" fill="#464242"/>
<path d="M111.861 233.108L117.502 234.382L125.099 213.222L116.773 211.342L111.861 233.108Z" fill="#FFB6B6"/>
<path d="M110.838 230.94L112.426 231.299L119.194 230.177L121.947 233.45L121.947 233.45C123.825 233.874 125.457 235.027 126.485 236.655C127.513 238.283 127.852 240.253 127.428 242.131L127.376 242.361L109.188 238.253L110.838 230.94Z" fill="#464242"/>
<path d="M82.1268 100.336C79.4155 108.517 79.7022 117.396 82.7785 126.927L84.0936 180.585C84.0936 180.585 82.1343 215.772 88.4568 228.155H97.6262L102.166 177.371L102.736 143.285L122.395 172.042L109.874 227.324L121.159 228.334L141.477 168.34L116.409 110.135L82.1268 100.336Z" fill="#464242"/>
<path d="M187.871 77.035C194.885 70.7124 205.317 67.5333 214.067 71.0786C205.091 76.0641 198.167 84.0651 194.52 93.6662C193.127 97.374 191.963 101.643 188.537 103.628C186.405 104.863 183.752 104.924 181.362 104.327C178.971 103.731 176.78 102.536 174.619 101.352L174.004 101.338C176.764 92.3065 180.857 83.3575 187.871 77.035Z" fill="#E6E6E6"/>
<path d="M214.018 71.2706C206.268 72.2725 199.031 75.6919 193.334 81.043C192.087 82.1732 191.026 83.493 190.19 84.9537C189.421 86.4029 189.055 88.0316 189.128 89.6704C189.166 91.1999 189.382 92.76 189.048 94.272C188.865 95.0434 188.521 95.7675 188.039 96.3968C187.557 97.0261 186.948 97.5463 186.251 97.9234C184.538 98.9081 182.574 99.2186 180.643 99.4554C178.498 99.7183 176.267 99.9574 174.411 101.161C174.186 101.306 173.973 100.949 174.198 100.803C177.427 98.7099 181.513 99.4716 184.986 98.0745C186.606 97.4225 188.04 96.2782 188.547 94.548C188.991 93.0351 188.77 91.4261 188.718 89.8778C188.623 88.2801 188.92 86.6834 189.584 85.2272C190.343 83.7286 191.352 82.3701 192.566 81.21C195.259 78.5546 198.353 76.3392 201.733 74.645C205.581 72.6901 209.734 71.408 214.014 70.8543C214.279 70.8201 214.281 71.2367 214.018 71.2706H214.018Z" fill="white"/>
<path d="M195.067 79.2121C194.299 78.134 193.939 76.818 194.052 75.4992C194.165 74.1804 194.742 72.9445 195.682 72.0124C195.872 71.8244 196.173 72.1121 195.982 72.3003C195.106 73.1667 194.568 74.3179 194.466 75.5463C194.363 76.7746 194.703 77.999 195.424 78.9987C195.58 79.2161 195.222 79.4282 195.067 79.2121V79.2121Z" fill="white"/>
<path d="M189.007 88.8976C191.67 89.3696 194.414 88.8201 196.69 87.3586C196.915 87.2137 197.128 87.5712 196.903 87.7161C194.532 89.2325 191.676 89.7985 188.905 89.3012C188.641 89.2536 188.745 88.8502 189.007 88.8976V88.8976Z" fill="white"/>
<path d="M205.615 73.2411C205.825 73.7201 206.151 74.1394 206.563 74.4614C206.975 74.7833 207.461 74.9978 207.976 75.0856C208.241 75.1298 208.137 75.5332 207.874 75.4892C207.305 75.3896 206.769 75.1521 206.313 74.7974C205.857 74.4427 205.494 73.9816 205.257 73.4545C205.231 73.4066 205.224 73.3505 205.237 73.2975C205.25 73.2445 205.283 73.1986 205.329 73.1691C205.377 73.141 205.433 73.1329 205.487 73.1464C205.54 73.1599 205.586 73.1939 205.615 73.2411Z" fill="white"/>
<path d="M223.703 101.569C223.537 101.546 223.371 101.523 223.202 101.503C220.97 101.206 218.717 101.092 216.466 101.161C216.292 101.163 216.115 101.168 215.942 101.176C210.52 101.399 205.187 102.627 200.213 104.798C198.235 105.663 196.326 106.678 194.501 107.833C191.982 109.429 189.377 111.36 186.561 112.011C186.268 112.082 185.97 112.135 185.671 112.17L174.034 102.09C174.019 102.054 174.002 102.02 173.987 101.984L173.504 101.603C173.594 101.536 173.689 101.47 173.778 101.404C173.83 101.365 173.885 101.329 173.937 101.29C173.973 101.265 174.008 101.24 174.039 101.216C174.051 101.207 174.062 101.199 174.072 101.193C174.103 101.169 174.134 101.149 174.162 101.127C174.69 100.753 175.222 100.382 175.757 100.014C175.76 100.011 175.76 100.011 175.765 100.01C179.817 97.1665 184.193 94.8136 188.8 93.0009C188.938 92.9487 189.078 92.8937 189.222 92.846C191.296 92.0743 193.431 91.4736 195.603 91.0497C196.793 90.8214 197.994 90.6536 199.202 90.5468C202.322 90.277 205.465 90.4997 208.516 91.207C214.597 92.6177 220.16 95.9585 223.455 101.169C223.539 101.302 223.621 101.433 223.703 101.569Z" fill="#E6E6E6"/>
<path d="M223.549 101.694C216.758 97.8263 208.921 96.1973 201.152 97.0386C199.476 97.19 197.835 97.6048 196.288 98.2675C194.802 98.9618 193.53 100.041 192.602 101.394C191.712 102.638 190.945 104.014 189.768 105.02C189.158 105.526 188.448 105.897 187.684 106.109C186.921 106.321 186.121 106.369 185.337 106.251C183.377 106.005 181.622 105.07 179.938 104.096C178.067 103.015 176.142 101.861 173.936 101.704C173.668 101.685 173.714 101.271 173.98 101.29C177.819 101.564 180.623 104.633 184.237 105.609C185.923 106.065 187.756 106.015 189.203 104.939C190.467 103.998 191.259 102.58 192.15 101.313C193.035 99.9799 194.234 98.8841 195.64 98.1212C197.148 97.3818 198.771 96.9046 200.439 96.7098C204.187 96.2115 207.99 96.3058 211.709 96.9893C215.958 97.7458 220.046 99.2239 223.796 101.36C224.028 101.492 223.779 101.826 223.549 101.694L223.549 101.694Z" fill="white"/>
<path d="M203.638 96.6204C203.674 95.2972 204.178 94.0299 205.062 93.0447C205.946 92.0596 207.151 91.4207 208.462 91.2422C208.727 91.2071 208.794 91.618 208.529 91.6532C207.307 91.8171 206.185 92.4124 205.364 93.3314C204.543 94.2505 204.078 95.4329 204.051 96.6652C204.045 96.933 203.632 96.8866 203.638 96.6204Z" fill="white"/>
<path d="M192.971 100.704C194.813 102.685 197.334 103.899 200.031 104.103C200.298 104.123 200.253 104.536 199.986 104.516C197.18 104.299 194.559 103.031 192.646 100.965C192.464 100.768 192.789 100.508 192.971 100.704Z" fill="white"/>
<path d="M215.653 98.206C215.532 98.7151 215.54 99.2461 215.676 99.7514C215.811 100.257 216.07 100.721 216.428 101.101C216.613 101.296 216.288 101.555 216.104 101.362C215.71 100.94 215.425 100.427 215.274 99.8692C215.123 99.3113 215.111 98.7248 215.239 98.1612C215.247 98.1071 215.275 98.0579 215.317 98.0236C215.36 97.9893 215.414 97.9726 215.469 97.9767C215.523 97.9829 215.573 98.0105 215.608 98.0534C215.642 98.0964 215.659 98.1512 215.653 98.206Z" fill="white"/>
<path d="M19.3158 236.348C18.7695 238.398 17.3342 240.106 15.6013 241.349C15.3188 241.553 15.0287 241.741 14.7348 241.918C14.6444 241.971 14.554 242.028 14.4598 242.077C14.3581 242.137 14.2564 242.193 14.1547 242.246H6.00617C5.85925 241.948 5.7161 241.647 5.57294 241.349C2.08072 234.008 -0.371744 226.086 0.0464183 218.017C0.212318 214.888 0.869578 211.803 1.99407 208.878C4.23181 203.048 8.31548 198.002 13.9324 195.462C14.0718 195.398 14.2187 195.333 14.3619 195.273C14.3167 195.435 14.2715 195.594 14.2263 195.756C13.6237 197.927 13.1978 200.144 12.9529 202.385C12.9303 202.558 12.9115 202.731 12.8964 202.909C12.3612 208.312 12.8365 213.768 14.2978 218.997C14.3016 219.008 14.3054 219.023 14.3091 219.035C14.6294 220.192 15.0011 221.331 15.4242 222.453C15.7558 223.339 16.1136 224.213 16.5054 225.072C18.1404 228.679 20.3329 232.523 19.3158 236.348Z" fill="#E6E6E6"/>
<path d="M14.4637 195.443C14.3846 195.548 14.3054 195.65 14.2263 195.756C12.5717 197.949 11.1666 200.321 10.0372 202.826C9.97691 202.95 9.9204 203.075 9.87142 203.203C8.32384 206.701 7.32995 210.418 6.92545 214.222C6.92107 214.248 6.91856 214.275 6.91792 214.301C6.82374 215.191 6.76723 216.088 6.74462 216.985C6.66086 218.666 6.84266 220.35 7.28334 221.975C7.68515 223.301 8.38926 224.516 9.34024 225.525C9.43442 225.626 9.52861 225.728 9.63032 225.826C9.70567 225.905 9.78854 225.984 9.86765 226.06C10.6286 226.787 11.4612 227.462 12.177 228.242C12.505 228.592 12.8013 228.97 13.0623 229.372C13.4787 230.047 13.7478 230.802 13.8517 231.588C13.9555 232.374 13.8919 233.173 13.665 233.933C13.1527 235.84 11.9811 237.449 10.7831 238.983C10.1841 239.751 9.56628 240.528 9.03133 241.349C8.83545 241.643 8.65461 241.941 8.48888 242.246H8.0142C8.17242 241.941 8.34572 241.643 8.53408 241.349C9.90912 239.182 11.8643 237.321 12.8777 234.935C13.5633 233.326 13.7705 231.502 12.9041 229.923C12.6501 229.464 12.3428 229.036 11.9886 228.649C11.2992 227.869 10.4742 227.202 9.72453 226.497C9.53616 226.32 9.35157 226.139 9.17451 225.95C8.23579 224.996 7.51142 223.853 7.04979 222.596C6.52701 221 6.27986 219.327 6.31895 217.648C6.31895 216.578 6.37546 215.5 6.48094 214.43C6.49224 214.294 6.50731 214.154 6.52238 214.015C7.2928 207.28 9.85139 200.874 13.9325 195.462C14.0079 195.356 14.087 195.254 14.1661 195.153C14.3281 194.942 14.6257 195.236 14.4637 195.443Z" fill="white"/>
<path d="M6.67418 214.465C5.36932 214.246 4.18486 213.57 3.33232 212.558C2.47978 211.545 2.01468 210.263 2.02007 208.939C2.02079 208.885 2.04242 208.834 2.08041 208.795C2.1184 208.757 2.16979 208.735 2.22373 208.734C2.27767 208.733 2.32997 208.752 2.3696 208.789C2.40923 208.826 2.4331 208.876 2.43618 208.93C2.42888 210.163 2.86224 211.357 3.65805 212.298C4.45386 213.239 5.5597 213.865 6.77597 214.062C7.04023 214.105 6.93693 214.508 6.67418 214.465V214.465Z" fill="white"/>
<path d="M9.23575 225.6C11.4526 224.05 13.004 221.721 13.5806 219.078C13.6375 218.816 14.0409 218.918 13.984 219.179C13.3789 221.929 11.7596 224.35 9.44907 225.958C9.22875 226.111 9.01663 225.753 9.23576 225.6L9.23575 225.6Z" fill="white"/>
<path d="M9.91238 202.782C10.3996 202.972 10.9263 203.038 11.4454 202.974C11.9644 202.91 12.4594 202.718 12.886 202.415C13.1043 202.26 13.3162 202.618 13.0993 202.773C12.6265 203.105 12.0795 203.316 11.5062 203.388C10.9329 203.46 10.3508 203.39 9.81058 203.185C9.75804 203.17 9.71321 203.136 9.68519 203.089C9.65717 203.042 9.64808 202.986 9.65974 202.933C9.67349 202.879 9.70774 202.833 9.75505 202.805C9.80235 202.777 9.85889 202.768 9.91238 202.782Z" fill="white"/>
<path d="M42.7254 210.016C42.5935 210.118 42.4579 210.22 42.326 210.325C40.5375 211.695 38.8631 213.207 37.3194 214.848C37.1988 214.972 37.0783 215.1 36.9615 215.228L36.9577 215.232C33.2975 219.207 30.4033 223.825 28.4212 228.852L28.4099 228.886C28.4061 228.898 28.4024 228.905 28.3986 228.916C27.6129 230.929 26.9795 232.997 26.5037 235.105C26.0441 237.162 25.6673 239.367 24.9478 241.349C24.8386 241.655 24.718 241.956 24.5899 242.246H7.84082C7.89733 241.949 7.9576 241.647 8.01788 241.349C8.8699 236.982 10.2015 232.723 11.9885 228.649C12.0488 228.513 12.1091 228.377 12.1769 228.242C13.0994 226.229 14.1842 224.294 15.4205 222.457C15.4205 222.456 15.4206 222.456 15.4208 222.455C15.4209 222.455 15.4212 222.454 15.4216 222.454C15.4219 222.454 15.4223 222.454 15.4228 222.453C15.4233 222.453 15.4238 222.453 15.4243 222.453C16.1031 221.451 16.8324 220.483 17.6092 219.555C19.624 217.157 22.004 215.091 24.6615 213.435C24.6766 213.423 24.6954 213.416 24.7105 213.404C29.9997 210.122 36.2683 208.558 42.262 209.911H42.2658C42.4202 209.945 42.5709 209.979 42.7254 210.016Z" fill="#E6E6E6"/>
<path d="M42.7067 210.216C42.5786 210.25 42.4505 210.288 42.3262 210.325C39.6859 211.08 37.1375 212.125 34.7277 213.442C34.6071 213.506 34.4866 213.574 34.366 213.642C31.0356 215.501 28.0125 217.865 25.4038 220.648C25.4017 220.65 25.4004 220.653 25.4 220.655C25.3699 220.686 25.336 220.72 25.3096 220.75C24.7068 221.398 24.1267 222.072 23.5767 222.766C22.5008 224.059 21.6339 225.512 21.0074 227.074C20.5287 228.375 20.3597 229.77 20.5139 231.147C20.5252 231.287 20.544 231.423 20.5629 231.562C20.5779 231.671 20.593 231.781 20.6119 231.894C20.8605 233.405 21.29 234.92 21.1694 236.461C21.0961 237.251 20.8564 238.016 20.4662 238.707C20.0759 239.397 19.544 239.997 18.9053 240.467C18.4711 240.803 18.0071 241.098 17.519 241.349C16.8211 241.709 16.0939 242.009 15.3453 242.246H13.8647C14.0644 242.19 14.2603 242.133 14.46 242.077C15.1685 241.877 15.8642 241.634 16.5432 241.349C16.9312 241.187 17.3086 241.001 17.6734 240.792C19.1878 239.921 20.4499 238.587 20.7136 236.804C20.9434 235.244 20.4988 233.684 20.2351 232.157C20.1899 231.894 20.1485 231.634 20.1259 231.374C19.946 230.052 20.0553 228.707 20.4461 227.432C20.9881 225.841 21.7985 224.354 22.8421 223.037C23.4876 222.18 24.1766 221.356 24.9065 220.569C24.9969 220.467 25.0911 220.365 25.189 220.263C27.8527 217.46 30.9282 215.08 34.3095 213.205H34.3133C36.8274 211.805 39.4947 210.699 42.2621 209.911H42.2659C42.3902 209.873 42.5183 209.836 42.6426 209.802C42.9025 209.734 42.9628 210.145 42.7067 210.216Z" fill="white"/>
<path d="M25.0401 220.712C24.1302 219.751 23.5914 218.497 23.5199 217.176C23.4484 215.854 23.8488 214.55 24.6497 213.496C24.8125 213.284 25.1505 213.527 24.9875 213.74C24.2399 214.719 23.8669 215.934 23.936 217.165C24.0051 218.396 24.5117 219.561 25.3643 220.451C25.5493 220.644 25.2241 220.904 25.0401 220.712H25.0401Z" fill="white"/>
<path d="M20.3835 231.145C23.0865 231.243 25.7269 230.317 27.7783 228.554C27.9814 228.379 28.242 228.703 28.0391 228.878C25.901 230.709 23.1513 231.667 20.3387 231.559C20.0707 231.549 20.1169 231.135 20.3835 231.145Z" fill="white"/>
<path d="M34.657 213.333C34.9316 213.779 35.3125 214.149 35.7654 214.41C36.2182 214.672 36.729 214.817 37.2517 214.832C37.5198 214.839 37.4732 215.253 37.2069 215.246C36.6295 215.226 36.0656 215.065 35.5646 214.778C35.0636 214.49 34.6407 214.083 34.3328 213.594C34.3 213.551 34.2849 213.496 34.2908 213.442C34.2967 213.387 34.323 213.337 34.3645 213.302C34.4076 213.267 34.4625 213.251 34.5173 213.257C34.572 213.263 34.6223 213.291 34.657 213.333Z" fill="white"/>
<path d="M171.929 65.2473C171.543 65.7561 171.049 66.1738 170.484 66.4712C169.918 66.7685 169.295 66.9382 168.657 66.9683C168.018 66.9984 167.381 66.8882 166.791 66.6454C166.2 66.4026 165.669 66.0331 165.236 65.563L150.996 71.7587L152.383 63.8062L165.693 59.1418C166.531 58.4669 167.587 58.1228 168.661 58.1747C169.736 58.2266 170.754 58.671 171.522 59.4236C172.291 60.1762 172.757 61.1847 172.832 62.258C172.907 63.3314 172.586 64.395 171.929 65.2473Z" fill="#FFB8B8"/>
<path d="M162.427 67.7302L129.351 82.4689L129.281 82.4436L91.583 69.0048C88.775 67.5367 86.6343 65.0504 85.599 62.0548C84.5638 59.0592 84.7124 55.7811 86.0144 52.8915C86.7361 51.295 87.7876 49.8695 89.0997 48.7089C90.4118 47.5482 91.9548 46.6787 93.627 46.1576C95.2992 45.6365 97.0628 45.4756 98.8017 45.6855C100.541 45.8954 102.215 46.4714 103.716 47.3755L131.77 64.2815L158.973 60.7544L162.427 67.7302Z" fill="#E6E6E6"/>
<path d="M325 242.552C325 242.61 324.989 242.669 324.966 242.723C324.944 242.778 324.911 242.827 324.869 242.869C324.828 242.911 324.778 242.944 324.724 242.966C324.669 242.989 324.611 243 324.552 243H0.460991C0.342094 243 0.228071 242.953 0.143999 242.869C0.0599262 242.785 0.0126953 242.67 0.0126953 242.552C0.0126953 242.433 0.0599262 242.319 0.143999 242.234C0.228071 242.15 0.342094 242.103 0.460991 242.103H324.552C324.611 242.103 324.669 242.114 324.724 242.137C324.778 242.159 324.828 242.192 324.869 242.234C324.911 242.276 324.944 242.325 324.966 242.38C324.989 242.434 325 242.493 325 242.552Z" fill="#CCCCCC"/>
<path d="M118.044 111.853L84.7017 106.518C83.8272 106.238 83.0237 105.772 82.3464 105.152C81.669 104.532 81.1338 103.772 80.7775 102.925C80.4212 102.079 80.2522 101.165 80.2822 100.247C80.3122 99.329 80.5404 98.4283 80.9512 97.6067L82.4633 94.5811L81.8759 62.7934C81.8051 58.6586 82.8241 54.5781 84.8303 50.9623C86.8365 47.3465 89.7592 44.3231 93.3043 42.1961L96.5558 40.2512L98.199 36.0768L113.351 36.4465L113.395 41.9214L118.821 50.5774L118.821 50.6133L118.481 97.7271L116.985 102.589L119.246 108.244L118.044 111.853Z" fill="#E6E6E6"/>
<path d="M107.162 30.886C114.765 30.886 120.929 24.7199 120.929 17.1137C120.929 9.5074 114.765 3.34131 107.162 3.34131C99.5587 3.34131 93.395 9.5074 93.395 17.1137C93.395 24.7199 99.5587 30.886 107.162 30.886Z" fill="#FFB8B8"/>
<path d="M92.8265 20.1159C92.4159 18.3854 92.6044 15.9502 92.8365 14.2077C93.4448 9.63961 95.9807 5.29677 99.8335 2.72436C100.564 2.1693 101.432 1.82419 102.344 1.72624C103.256 1.68818 104.244 2.17629 104.523 3.04491C104.753 2.47162 105.098 1.95149 105.536 1.51662C105.974 1.08175 106.497 0.741368 107.072 0.51649C108.227 0.0738027 109.469 -0.093611 110.7 0.027519C113.086 0.22426 115.374 1.06352 117.322 2.45623C119.269 3.84893 120.804 5.74313 121.762 7.93781C122.13 8.81169 123.157 5.5838 123.623 6.40949C124.051 7.26776 124.798 7.92429 125.704 8.2386C126.617 8.49344 126.987 12.2562 127.347 11.3788C127.625 12.0272 127.735 12.7356 127.667 13.4381C127.598 14.1406 127.353 14.8143 126.954 15.3964C126.555 15.9786 126.015 16.4502 125.385 16.7675C124.755 17.0848 124.054 17.2373 123.349 17.2109C122.42 17.1761 121.532 16.8342 120.614 16.6871C117.33 16.1608 113.848 18.5424 113.146 21.7939C112.894 20.8536 112.493 19.9601 111.957 19.1479C111.685 18.7439 111.32 18.4107 110.893 18.1762C110.467 17.9416 109.99 17.8123 109.503 17.7992C108.569 17.8341 107.748 18.4451 107.142 19.157C106.536 19.8689 106.081 20.6995 105.47 21.4076C103.679 23.4853 101.256 28.3306 98.7025 27.9772C96.6877 27.6983 93.3871 22.4787 92.8265 20.1159Z" fill="#464242"/>
<path d="M190.382 80.8538C190.479 80.2259 190.35 79.5842 190.018 79.0424C189.687 78.5006 189.174 78.0937 188.571 77.894L151.497 65.5413C151.142 65.4224 150.765 65.3791 150.392 65.4144L141.099 66.2935L135.767 66.7995L125.928 67.7297C125.334 67.7865 124.775 68.039 124.34 68.4475C123.905 68.8561 123.618 69.3975 123.523 69.987L118.527 101.206C118.433 101.815 118.549 102.438 118.856 102.972C119.163 103.506 119.643 103.92 120.217 104.144L157.678 118.61C157.854 118.678 158.037 118.727 158.223 118.756C158.494 118.8 158.771 118.802 159.043 118.762L183.249 115.173C183.82 115.091 184.349 114.826 184.758 114.419C185.167 114.012 185.433 113.483 185.518 112.912L190.382 80.8538Z" fill="white"/>
<path d="M121.066 101.944L158.527 116.409C158.582 116.431 158.641 116.438 158.699 116.43L182.902 112.841C182.974 112.831 183.041 112.798 183.092 112.747C183.143 112.696 183.177 112.63 183.187 112.558L188.054 80.4987C188.065 80.4204 188.049 80.3407 188.007 80.2733C187.966 80.2058 187.903 80.1547 187.828 80.1288L187.579 80.0444L150.751 67.7789C150.735 67.7729 150.717 67.7687 150.7 67.7664C150.671 67.7611 150.642 67.7596 150.613 67.7619L127.948 69.9075L126.149 70.0763C126.075 70.0842 126.006 70.116 125.952 70.1669C125.898 70.2177 125.862 70.2849 125.85 70.3581L120.855 101.576C120.843 101.652 120.857 101.73 120.895 101.797C120.934 101.864 120.994 101.916 121.066 101.944Z" fill="#1ED760"/>
<path d="M127.948 69.9075L150.613 67.7619C150.642 67.7596 150.671 67.7611 150.7 67.7664C150.717 67.7687 150.735 67.7729 150.751 67.7789L187.579 80.0444L177.865 81.0731L174.229 81.4563L163.884 82.5497C163.854 82.5512 163.823 82.5508 163.793 82.5486C163.775 82.543 163.757 82.5375 163.734 82.5316L127.948 69.9075Z" fill="#464242"/>
<path d="M120.216 104.146L157.677 118.611C157.853 118.679 158.036 118.727 158.223 118.754C158.495 118.799 158.771 118.802 159.044 118.764L183.247 115.176C183.818 115.093 184.347 114.828 184.756 114.42C185.165 114.013 185.432 113.484 185.518 112.913L190.381 80.8537C190.453 80.381 190.399 79.8978 190.224 79.453C190.199 79.3938 190.174 79.3347 190.146 79.279C189.953 78.8728 189.659 78.5229 189.293 78.2623C189.072 78.1039 188.829 77.9798 188.571 77.8943L188.527 77.8787L151.499 65.5409C151.347 65.4927 151.193 65.4551 151.036 65.4286C150.822 65.3983 150.605 65.3941 150.39 65.4161L141.099 66.2922L135.768 66.801L125.926 67.7305C125.524 67.7681 125.135 67.8966 124.789 68.1064C124.763 68.1193 124.737 68.1346 124.713 68.1521C124.696 68.1633 124.679 68.1756 124.664 68.1891C124.362 68.3952 124.105 68.6607 123.909 68.9694C123.713 69.278 123.582 69.6234 123.524 69.9844L118.525 101.206C118.43 101.815 118.546 102.438 118.854 102.973C119.161 103.507 119.641 103.921 120.216 104.146ZM124.187 70.0932C124.248 69.719 124.414 69.3698 124.665 69.0865C124.742 68.9953 124.827 68.9121 124.92 68.8382C125.174 68.6326 125.475 68.4924 125.795 68.4297C125.859 68.4166 125.923 68.4076 125.987 68.4026L142.557 66.8366L150.455 66.0848C150.509 66.0785 150.558 66.0794 150.607 66.0766C150.727 66.0741 150.846 66.083 150.964 66.1032C151.073 66.1172 151.179 66.1426 151.282 66.179L188.355 78.5323C188.384 78.5427 188.41 78.5527 188.439 78.5631C188.776 78.6885 189.072 78.9041 189.295 79.1863C189.472 79.4023 189.6 79.6532 189.673 79.9224C189.746 80.1916 189.761 80.4731 189.718 80.7486L184.85 112.811C184.786 113.239 184.587 113.635 184.281 113.94C183.975 114.246 183.579 114.445 183.152 114.508L158.945 118.096C158.598 118.146 158.245 118.106 157.919 117.979L120.457 103.518C120.028 103.349 119.669 103.038 119.439 102.638C119.209 102.238 119.122 101.771 119.192 101.315L124.187 70.0932Z" fill="#7B7B7B"/>
<path d="M124.583 68.3593C124.603 68.3025 124.638 68.2521 124.684 68.2137C124.7 68.2015 124.716 68.1903 124.733 68.1805C124.749 68.1744 124.765 68.1646 124.781 68.1585C124.856 68.1283 124.939 68.1269 125.016 68.1545L125.795 68.4297L163.888 81.8724L172.803 80.9301L177.792 80.4037L188.351 79.2854L189.296 79.1863L189.479 79.166C189.558 79.1588 189.637 79.1794 189.703 79.2244C189.768 79.2694 189.816 79.3359 189.838 79.4123C189.843 79.4299 189.846 79.448 189.848 79.4662C189.856 79.5388 189.84 79.6119 189.802 79.6746C189.765 79.7373 189.708 79.7861 189.641 79.8137C189.611 79.8261 189.579 79.8345 189.547 79.8388L188.263 79.9735L177.864 81.0731L174.229 81.4563L163.884 82.5497C163.854 82.5512 163.823 82.5508 163.793 82.5486C163.775 82.543 163.756 82.5375 163.734 82.5316L124.92 68.8382L124.788 68.7915C124.758 68.7816 124.73 68.7661 124.706 68.7457C124.647 68.7026 124.603 68.642 124.581 68.5725C124.559 68.503 124.56 68.4283 124.583 68.3593Z" fill="#7B7B7B"/>
<path d="M158.325 118.852C158.238 118.838 158.159 118.79 158.107 118.719C158.055 118.647 158.033 118.557 158.046 118.47L163.515 82.1642C163.528 82.0759 163.576 81.9964 163.648 81.9434C163.719 81.8904 163.809 81.868 163.898 81.8813L163.901 81.8818C163.988 81.8958 164.067 81.9439 164.119 82.0156C164.172 82.0873 164.194 82.1768 164.18 82.2646L158.712 118.57C158.698 118.658 158.65 118.738 158.579 118.791C158.507 118.844 158.417 118.866 158.329 118.853L158.325 118.852Z" fill="#7B7B7B"/>
<path d="M172.188 116.549L168.551 116.933L172.805 80.9291C172.805 80.9291 177.663 80.0493 177.793 80.4021C177.873 80.6127 172.223 116.318 172.188 116.549Z" fill="#7B7B7B"/>
<path d="M124.789 68.791L124.691 85.2101L153.747 96.2855L164.181 82.2645L124.789 68.791Z" fill="#7B7B7B"/>
<path d="M189.297 79.1868C189.054 78.8814 188.727 78.6539 188.356 78.5324L151.285 66.1795C151.18 66.1444 151.074 66.1184 150.965 66.1016C150.847 66.0813 150.727 66.0723 150.607 66.0748L150.667 65.6989L151.038 65.4301L159.842 59.054L189.241 68.0675L189.292 78.2624L189.297 79.1868Z" fill="#7B7B7B"/>
<path d="M126.27 95.1491C126.312 95.1532 126.353 95.1618 126.393 95.1749L137.768 98.9123C137.91 98.959 138.028 99.0605 138.096 99.1943C138.163 99.3281 138.175 99.4833 138.128 99.6257C138.082 99.7682 137.98 99.8862 137.847 99.9539C137.713 100.022 137.558 100.033 137.415 99.9866L126.041 96.2492C125.909 96.2058 125.797 96.1153 125.728 95.9948C125.658 95.8744 125.635 95.7326 125.664 95.5965C125.692 95.4604 125.77 95.3395 125.882 95.257C125.994 95.1744 126.132 95.136 126.27 95.1491H126.27Z" fill="white"/>
<path d="M172.164 164.027C174.66 164.027 176.684 162.002 176.684 159.505C176.684 157.007 174.66 154.982 172.164 154.982C169.667 154.982 167.643 157.007 167.643 159.505C167.643 162.002 169.667 164.027 172.164 164.027Z" fill="#F2F2F2"/>
<path d="M56.8864 180.609C59.3831 180.609 61.4071 178.585 61.4071 176.087C61.4071 173.589 59.3831 171.564 56.8864 171.564C54.3897 171.564 52.3657 173.589 52.3657 176.087C52.3657 178.585 54.3897 180.609 56.8864 180.609Z" fill="#F2F2F2"/>
<path d="M151.067 30.9922C153.564 30.9922 155.588 28.9675 155.588 26.4698C155.588 23.9721 153.564 21.9474 151.067 21.9474C148.57 21.9474 146.546 23.9721 146.546 26.4698C146.546 28.9675 148.57 30.9922 151.067 30.9922Z" fill="#F2F2F2"/>
<path d="M158.484 101.8C157.898 102.055 157.264 102.178 156.625 102.161C155.987 102.144 155.359 101.987 154.788 101.701C154.217 101.415 153.715 101.007 153.318 100.506C152.922 100.005 152.639 99.4234 152.492 98.8016L137.042 97.2401L142.139 90.9817L156.029 93.424C157.089 93.2451 158.179 93.4615 159.091 94.0323C160.002 94.6032 160.673 95.4887 160.976 96.5212C161.278 97.5537 161.192 98.6614 160.733 99.6344C160.273 100.607 159.473 101.378 158.484 101.8Z" fill="#FFB8B8"/>
<path d="M148.981 99.3177L112.926 95.9944L112.876 95.9375L86.5619 65.7742C84.8302 63.12 84.1781 59.904 84.7394 56.7845C85.3006 53.6651 87.0325 50.8783 89.5807 48.9947C90.9906 47.9551 92.6046 47.2261 94.3164 46.8555C96.0283 46.4849 97.7992 46.4813 99.5126 46.8447C101.226 47.2082 102.843 47.9306 104.257 48.9643C105.671 49.998 106.851 51.3196 107.717 52.8421L123.925 81.3125L149.378 91.5434L148.981 99.3177Z" fill="#E6E6E6"/>
<path d="M239.479 41.3112C238.584 34.7409 237.461 27.6867 232.828 22.9437C231.358 21.4388 229.599 20.2472 227.657 19.4408C225.714 18.6344 223.628 18.2299 221.525 18.2517C219.422 18.2735 217.345 18.7211 215.42 19.5675C213.494 20.414 211.76 21.6417 210.321 23.1768C206.949 26.7754 205.46 31.8285 205.324 36.7591C205.188 41.6897 206.285 46.5655 207.503 51.3452C213.947 51.474 220.344 50.2145 226.259 47.6521C227.738 47.0099 229.193 46.2839 230.755 45.886C232.318 45.4881 233.432 46.4893 234.885 47.1875L235.683 45.6591C236.336 46.8751 238.359 46.5146 239.093 45.3454C239.826 44.1762 239.665 42.6789 239.479 41.3112Z" fill="#464242"/>
<path d="M213.935 77.9838L187.611 78.547C187.206 77.848 186.608 77.2815 185.888 76.9166C185.167 76.5516 184.357 76.404 183.554 76.4915C182.752 76.5791 181.992 76.8981 181.367 77.4098C180.743 77.9215 180.28 78.6037 180.036 79.3735C179.792 80.1433 179.777 80.9675 179.993 81.7458C180.208 82.524 180.645 83.2228 181.251 83.7571C181.856 84.2914 182.604 84.6382 183.402 84.7552C184.201 84.8723 185.017 84.7545 185.75 84.4163C189.241 84.6148 216.555 88.4931 218.185 85.9937C219.838 83.457 228.667 74.5044 228.667 74.5044L221.881 64.8401L213.935 77.9838Z" fill="#9E616A"/>
<path d="M220.349 47.8116C227.18 47.8116 232.717 42.2722 232.717 35.4389C232.717 28.6057 227.18 23.0663 220.349 23.0663C213.519 23.0663 207.981 28.6057 207.981 35.4389C207.981 42.2722 213.519 47.8116 220.349 47.8116Z" fill="#9E616A"/>
<path d="M240.159 59.2453C238.701 56.3435 237.993 52.7586 234.886 51.8179C232.788 51.1826 224.301 52.1346 222.389 53.207C219.208 54.9907 222.09 58.3333 220.214 61.4612C218.174 64.8616 212.63 71.6856 210.589 75.0859C209.187 77.4236 213.911 84.2851 213.153 86.9038C212.395 89.5225 212.358 92.4616 213.65 94.8622C214.806 97.0109 213.133 98.9117 214.296 101.057C215.505 103.288 216.989 111.629 215.864 113.903L215.11 116.165C222.587 116.604 228.874 107.668 236.304 106.727C238.149 106.493 240.066 106.188 241.586 105.116C243.827 103.538 244.712 100.673 245.266 97.9887C247.929 84.8658 246.132 71.2288 240.159 59.2453Z" fill="#7B7B7B"/>
<path d="M251.368 89.8854C250.327 87.0416 248.441 74.6083 248.441 74.6083L236.641 74.2622L242.41 88.4973L226.667 110.545C226.667 110.545 226.696 110.594 226.749 110.68C225.921 110.547 225.073 110.667 224.314 111.025C223.556 111.382 222.923 111.961 222.499 112.684C222.074 113.407 221.878 114.242 221.936 115.078C221.993 115.915 222.302 116.715 222.821 117.373C223.34 118.031 224.046 118.518 224.846 118.768C225.647 119.018 226.504 119.021 227.305 118.776C228.107 118.531 228.816 118.05 229.34 117.395C229.864 116.74 230.178 115.943 230.241 115.106C230.299 115.14 230.367 115.152 230.433 115.14C230.499 115.129 230.558 115.095 230.602 115.044C232.354 112.845 252.41 92.7291 251.368 89.8854Z" fill="#9E616A"/>
<path d="M252.568 82.0333C251.485 77.4601 250.394 72.862 248.568 68.5317C246.742 64.2014 244.127 60.1114 240.45 57.1859C239.275 56.2506 237.961 55.4251 236.487 55.1343C235.014 54.8435 233.353 55.1689 232.318 56.2579C230.662 58.0003 231.16 60.7973 231.768 63.1236C233.559 69.9828 235.35 76.8419 237.141 83.7011C242.313 83.1527 247.485 82.6042 252.657 82.0557L252.568 82.0333Z" fill="#7B7B7B"/>
<path d="M235.504 37.1551C235.049 34.162 234.573 31.1439 233.503 28.3256C232.433 25.5073 230.708 22.8676 228.234 21.2711C224.316 18.7434 219.244 19.2309 214.852 20.6849C211.456 21.8093 208.14 23.5184 205.745 26.2661C203.349 29.0137 202.004 32.9343 202.895 36.5269C207.58 35.4196 212.265 34.3123 216.95 33.2049L216.437 33.5675C217.976 34.3348 219.319 35.4427 220.365 36.807C221.412 38.1713 222.134 39.7562 222.477 41.4413C222.812 43.1469 222.763 44.9056 222.336 46.5903C221.908 48.275 221.111 49.8436 220.003 51.1825C223.198 50.0485 226.394 48.9146 229.589 47.7807C231.561 47.0809 233.672 46.2744 234.841 44.4792C236.197 42.3978 235.882 39.6391 235.504 37.1551Z" fill="#464242"/>
</g>
<defs>
<clipPath id="clip0_111_745">
<rect width="325" height="243" fill="white"/>
</clipPath>
</defs>
</svg>
