<svg width="326" height="243" viewBox="0 0 326 243" fill="none" xmlns="http://www.w3.org/2000/svg">
<g clip-path="url(#clip0_143_564)">
<path d="M237.814 230.887H231.347L228.27 205.935H237.814V230.887Z" fill="#9E616A"/>
<path d="M241.227 242.095H236.59L235.762 237.715L233.642 242.095H221.342C220.753 242.095 220.178 241.907 219.704 241.557C219.229 241.208 218.878 240.715 218.702 240.152C218.527 239.589 218.536 238.985 218.728 238.427C218.921 237.87 219.286 237.388 219.771 237.053L229.593 230.267V225.839L239.924 226.456L241.227 242.095Z" fill="#464242"/>
<path d="M276.232 222.723L271.043 226.583L253.69 208.397L261.349 202.699L276.232 222.723Z" fill="#9E616A"/>
<path d="M285.657 229.68L281.935 232.448L278.658 229.427L279.57 234.207L269.7 241.55C269.227 241.902 268.654 242.093 268.064 242.096C267.475 242.099 266.9 241.914 266.423 241.566C265.946 241.219 265.593 240.729 265.415 240.167C265.236 239.605 265.242 239 265.432 238.442L269.266 227.133L266.624 223.579L275.283 217.907L285.657 229.68Z" fill="#464242"/>
<path d="M245.343 102.147C245.343 102.147 257.612 112.751 251.951 142.981L245.04 172.602L267.579 210.008L260.392 218.755L231.091 178.266L220.473 153.35L217.494 109.004L245.343 102.147Z" fill="#464242"/>
<path d="M226.325 160.451L225.587 171.884L227.846 220.606L238.473 218.755L240.504 184.065L226.325 160.451Z" fill="#464242"/>
<path d="M89.951 236.753L95.734 236.753L98.4848 214.439L89.9502 214.439L89.951 236.753Z" fill="#FFB6B6"/>
<path d="M88.4761 234.865L90.1038 234.864L96.4587 232.279L99.8647 234.864H99.8652C101.79 234.864 103.636 235.629 104.997 236.991C106.358 238.352 107.123 240.199 107.123 242.124V242.36L88.4764 242.361L88.4761 234.865Z" fill="#464242"/>
<path d="M112.361 233.108L118.002 234.382L125.599 213.222L117.273 211.342L112.361 233.108Z" fill="#FFB6B6"/>
<path d="M111.338 230.94L112.926 231.299L119.694 230.177L122.447 233.45L122.447 233.45C124.325 233.874 125.957 235.027 126.985 236.655C128.013 238.283 128.352 240.253 127.928 242.131L127.876 242.361L109.688 238.253L111.338 230.94Z" fill="#464242"/>
<path d="M82.6268 100.336C79.9155 108.517 80.2022 117.396 83.2785 126.927L84.5936 180.585C84.5936 180.585 82.6343 215.772 88.9568 228.155H98.1262L102.666 177.371L103.236 143.285L122.895 172.042L110.374 227.324L121.659 228.334L141.977 168.34L116.909 110.135L82.6268 100.336Z" fill="#464242"/>
<path d="M188.371 77.035C195.385 70.7124 205.817 67.5333 214.567 71.0786C205.591 76.0641 198.667 84.0651 195.02 93.6662C193.627 97.374 192.463 101.643 189.037 103.628C186.905 104.863 184.252 104.924 181.862 104.327C179.471 103.731 177.28 102.536 175.119 101.352L174.504 101.338C177.264 92.3065 181.357 83.3575 188.371 77.035Z" fill="#C8C8C8"/>
<path d="M214.518 71.2706C206.768 72.2725 199.531 75.6919 193.834 81.043C192.587 82.1732 191.526 83.493 190.69 84.9537C189.921 86.4029 189.555 88.0316 189.628 89.6704C189.666 91.1999 189.882 92.76 189.548 94.272C189.365 95.0434 189.021 95.7675 188.539 96.3968C188.057 97.0261 187.448 97.5463 186.751 97.9234C185.038 98.9081 183.074 99.2186 181.143 99.4554C178.998 99.7183 176.767 99.9574 174.911 101.161C174.686 101.306 174.473 100.949 174.698 100.803C177.927 98.7099 182.013 99.4716 185.486 98.0745C187.106 97.4225 188.54 96.2782 189.047 94.548C189.491 93.0351 189.27 91.4261 189.218 89.8778C189.123 88.2801 189.42 86.6834 190.084 85.2272C190.843 83.7286 191.852 82.3701 193.066 81.21C195.759 78.5546 198.853 76.3392 202.233 74.645C206.081 72.6901 210.234 71.408 214.514 70.8543C214.779 70.8201 214.781 71.2367 214.518 71.2706H214.518Z" fill="#333333"/>
<path d="M195.567 79.2121C194.799 78.134 194.439 76.818 194.552 75.4992C194.665 74.1804 195.242 72.9445 196.182 72.0124C196.372 71.8244 196.673 72.1121 196.482 72.3003C195.606 73.1667 195.068 74.3179 194.966 75.5463C194.863 76.7746 195.203 77.999 195.924 78.9987C196.08 79.2161 195.722 79.4282 195.567 79.2121V79.2121Z" fill="#333333"/>
<path d="M189.507 88.8976C192.17 89.3696 194.914 88.8201 197.19 87.3586C197.415 87.2137 197.628 87.5712 197.403 87.7161C195.032 89.2325 192.176 89.7985 189.405 89.3012C189.141 89.2536 189.245 88.8502 189.507 88.8976V88.8976Z" fill="#333333"/>
<path d="M206.115 73.2411C206.325 73.7201 206.651 74.1394 207.063 74.4614C207.475 74.7833 207.961 74.9978 208.476 75.0856C208.741 75.1298 208.637 75.5332 208.374 75.4892C207.805 75.3896 207.269 75.1521 206.813 74.7974C206.357 74.4427 205.994 73.9816 205.757 73.4545C205.731 73.4066 205.724 73.3505 205.737 73.2975C205.75 73.2445 205.783 73.1986 205.829 73.1691C205.877 73.141 205.933 73.1329 205.987 73.1464C206.04 73.1599 206.086 73.1939 206.115 73.2411Z" fill="#333333"/>
<path d="M224.203 101.569C224.037 101.546 223.871 101.523 223.702 101.503C221.47 101.206 219.217 101.092 216.966 101.161C216.792 101.163 216.615 101.168 216.442 101.176C211.02 101.399 205.687 102.627 200.713 104.798C198.735 105.663 196.826 106.678 195.001 107.833C192.482 109.429 189.877 111.36 187.061 112.011C186.768 112.082 186.47 112.135 186.171 112.17L174.534 102.09C174.519 102.054 174.502 102.02 174.487 101.984L174.004 101.603C174.094 101.536 174.189 101.47 174.278 101.404C174.33 101.365 174.385 101.329 174.437 101.29C174.473 101.265 174.508 101.24 174.539 101.216C174.551 101.207 174.562 101.199 174.572 101.193C174.603 101.169 174.634 101.149 174.662 101.127C175.19 100.753 175.722 100.382 176.257 100.014C176.26 100.011 176.26 100.011 176.265 100.01C180.317 97.1665 184.693 94.8136 189.3 93.0009C189.438 92.9487 189.578 92.8937 189.722 92.846C191.796 92.0743 193.931 91.4736 196.103 91.0497C197.293 90.8214 198.494 90.6536 199.702 90.5468C202.822 90.277 205.965 90.4997 209.016 91.207C215.097 92.6177 220.66 95.9585 223.955 101.169C224.039 101.302 224.121 101.433 224.203 101.569Z" fill="#C8C8C8"/>
<path d="M224.049 101.694C217.258 97.8263 209.421 96.1973 201.652 97.0386C199.976 97.19 198.335 97.6048 196.788 98.2675C195.302 98.9618 194.03 100.041 193.102 101.394C192.212 102.638 191.445 104.014 190.268 105.02C189.658 105.526 188.948 105.897 188.184 106.109C187.421 106.321 186.621 106.369 185.837 106.251C183.877 106.005 182.122 105.07 180.438 104.096C178.567 103.015 176.642 101.861 174.436 101.704C174.168 101.685 174.214 101.271 174.48 101.29C178.319 101.564 181.123 104.633 184.737 105.609C186.423 106.065 188.256 106.015 189.703 104.939C190.967 103.998 191.759 102.58 192.65 101.313C193.535 99.9799 194.734 98.8841 196.14 98.1212C197.648 97.3818 199.271 96.9046 200.939 96.7098C204.687 96.2115 208.49 96.3058 212.209 96.9893C216.458 97.7458 220.546 99.2239 224.296 101.36C224.528 101.492 224.279 101.826 224.049 101.694L224.049 101.694Z" fill="#333333"/>
<path d="M204.138 96.6204C204.174 95.2972 204.678 94.0299 205.562 93.0447C206.446 92.0596 207.651 91.4207 208.962 91.2422C209.227 91.2071 209.294 91.618 209.029 91.6532C207.807 91.8171 206.685 92.4124 205.864 93.3314C205.043 94.2505 204.578 95.4329 204.551 96.6652C204.545 96.933 204.132 96.8866 204.138 96.6204Z" fill="#333333"/>
<path d="M193.471 100.704C195.313 102.685 197.834 103.899 200.531 104.103C200.798 104.123 200.753 104.536 200.486 104.516C197.68 104.299 195.059 103.031 193.146 100.965C192.964 100.768 193.289 100.508 193.471 100.704Z" fill="#333333"/>
<path d="M216.153 98.206C216.032 98.7151 216.04 99.2461 216.176 99.7514C216.311 100.257 216.57 100.721 216.928 101.101C217.113 101.296 216.788 101.555 216.604 101.362C216.21 100.94 215.925 100.427 215.774 99.8692C215.623 99.3113 215.611 98.7248 215.739 98.1612C215.747 98.1071 215.775 98.0579 215.817 98.0236C215.86 97.9893 215.914 97.9726 215.969 97.9767C216.023 97.9829 216.073 98.0105 216.108 98.0534C216.142 98.0964 216.159 98.1512 216.153 98.206Z" fill="#333333"/>
<path d="M19.8158 236.348C19.2695 238.398 17.8342 240.106 16.1013 241.349C15.8188 241.553 15.5287 241.741 15.2348 241.918C15.1444 241.971 15.054 242.028 14.9598 242.077C14.8581 242.137 14.7564 242.193 14.6547 242.246H6.50617C6.35925 241.948 6.2161 241.647 6.07294 241.349C2.58072 234.008 0.128256 226.086 0.546418 218.017C0.712318 214.888 1.36958 211.803 2.49407 208.878C4.73181 203.048 8.81548 198.002 14.4324 195.462C14.5718 195.398 14.7187 195.333 14.8619 195.273C14.8167 195.435 14.7715 195.594 14.7263 195.756C14.1237 197.927 13.6978 200.144 13.4529 202.385C13.4303 202.558 13.4115 202.731 13.3964 202.909C12.8612 208.312 13.3365 213.768 14.7978 218.997C14.8016 219.008 14.8054 219.023 14.8091 219.035C15.1294 220.192 15.5011 221.331 15.9242 222.453C16.2558 223.339 16.6136 224.213 17.0054 225.072C18.6404 228.679 20.8329 232.523 19.8158 236.348Z" fill="#C8C8C8"/>
<path d="M14.9637 195.443C14.8846 195.548 14.8054 195.65 14.7263 195.756C13.0717 197.949 11.6666 200.321 10.5372 202.826C10.4769 202.95 10.4204 203.075 10.3714 203.203C8.82384 206.701 7.82995 210.418 7.42545 214.222C7.42107 214.248 7.41856 214.275 7.41792 214.301C7.32374 215.191 7.26723 216.088 7.24462 216.985C7.16086 218.666 7.34266 220.35 7.78334 221.975C8.18515 223.301 8.88926 224.516 9.84024 225.525C9.93442 225.626 10.0286 225.728 10.1303 225.826C10.2057 225.905 10.2885 225.984 10.3677 226.06C11.1286 226.787 11.9612 227.462 12.677 228.242C13.005 228.592 13.3013 228.97 13.5623 229.372C13.9787 230.047 14.2478 230.802 14.3517 231.588C14.4555 232.374 14.3919 233.173 14.165 233.933C13.6527 235.84 12.4811 237.449 11.2831 238.983C10.6841 239.751 10.0663 240.528 9.53133 241.349C9.33545 241.643 9.15461 241.941 8.98888 242.246H8.5142C8.67242 241.941 8.84572 241.643 9.03408 241.349C10.4091 239.182 12.3643 237.321 13.3777 234.935C14.0633 233.326 14.2705 231.502 13.4041 229.923C13.1501 229.464 12.8428 229.036 12.4886 228.649C11.7992 227.869 10.9742 227.202 10.2245 226.497C10.0362 226.32 9.85157 226.139 9.67451 225.95C8.73579 224.996 8.01142 223.853 7.54979 222.596C7.02701 221 6.77986 219.327 6.81895 217.648C6.81895 216.578 6.87546 215.5 6.98094 214.43C6.99224 214.294 7.00731 214.154 7.02238 214.015C7.7928 207.28 10.3514 200.874 14.4325 195.462C14.5079 195.356 14.587 195.254 14.6661 195.153C14.8281 194.942 15.1257 195.236 14.9637 195.443Z" fill="#333333"/>
<path d="M7.17418 214.465C5.86932 214.246 4.68486 213.57 3.83232 212.558C2.97978 211.545 2.51468 210.263 2.52007 208.939C2.52079 208.885 2.54242 208.834 2.58041 208.795C2.6184 208.757 2.66979 208.735 2.72373 208.734C2.77767 208.733 2.82997 208.752 2.8696 208.789C2.90923 208.826 2.9331 208.876 2.93618 208.93C2.92888 210.163 3.36224 211.357 4.15805 212.298C4.95386 213.239 6.0597 213.865 7.27597 214.062C7.54023 214.105 7.43693 214.508 7.17418 214.465V214.465Z" fill="#333333"/>
<path d="M9.73575 225.6C11.9526 224.05 13.504 221.721 14.0806 219.078C14.1375 218.816 14.5409 218.918 14.484 219.179C13.8789 221.929 12.2596 224.35 9.94907 225.958C9.72875 226.111 9.51663 225.753 9.73576 225.6L9.73575 225.6Z" fill="#333333"/>
<path d="M10.4124 202.782C10.8996 202.972 11.4263 203.038 11.9454 202.974C12.4644 202.91 12.9594 202.718 13.386 202.415C13.6043 202.26 13.8162 202.618 13.5993 202.773C13.1265 203.105 12.5795 203.316 12.0062 203.388C11.4329 203.46 10.8508 203.39 10.3106 203.185C10.258 203.17 10.2132 203.136 10.1852 203.089C10.1572 203.042 10.1481 202.986 10.1597 202.933C10.1735 202.879 10.2077 202.833 10.255 202.805C10.3023 202.777 10.3589 202.768 10.4124 202.782Z" fill="#333333"/>
<path d="M43.2254 210.016C43.0935 210.118 42.9579 210.22 42.826 210.325C41.0375 211.695 39.3631 213.207 37.8194 214.848C37.6988 214.972 37.5783 215.1 37.4615 215.228L37.4577 215.232C33.7975 219.207 30.9033 223.825 28.9212 228.852L28.9099 228.886C28.9061 228.898 28.9024 228.905 28.8986 228.916C28.1129 230.929 27.4795 232.997 27.0037 235.105C26.5441 237.162 26.1673 239.367 25.4478 241.349C25.3386 241.655 25.218 241.956 25.0899 242.246H8.34082C8.39733 241.949 8.4576 241.647 8.51788 241.349C9.3699 236.982 10.7015 232.723 12.4885 228.649C12.5488 228.513 12.6091 228.377 12.6769 228.242C13.5994 226.229 14.6842 224.294 15.9205 222.457C15.9205 222.456 15.9206 222.456 15.9208 222.455C15.9209 222.455 15.9212 222.454 15.9216 222.454C15.9219 222.454 15.9223 222.454 15.9228 222.453C15.9233 222.453 15.9238 222.453 15.9243 222.453C16.6031 221.451 17.3324 220.483 18.1092 219.555C20.124 217.157 22.504 215.091 25.1615 213.435C25.1766 213.423 25.1954 213.416 25.2105 213.404C30.4997 210.122 36.7683 208.558 42.762 209.911H42.7658C42.9202 209.945 43.0709 209.979 43.2254 210.016Z" fill="#C8C8C8"/>
<path d="M43.2067 210.216C43.0786 210.25 42.9505 210.288 42.8262 210.325C40.1859 211.08 37.6375 212.125 35.2277 213.442C35.1071 213.506 34.9866 213.574 34.866 213.642C31.5356 215.501 28.5125 217.865 25.9038 220.648C25.9017 220.65 25.9004 220.653 25.9 220.655C25.8699 220.686 25.836 220.72 25.8096 220.75C25.2068 221.398 24.6267 222.072 24.0767 222.766C23.0008 224.059 22.1339 225.512 21.5074 227.074C21.0287 228.375 20.8597 229.77 21.0139 231.147C21.0252 231.287 21.044 231.423 21.0629 231.562C21.0779 231.671 21.093 231.781 21.1119 231.894C21.3605 233.405 21.79 234.92 21.6694 236.461C21.5961 237.251 21.3564 238.016 20.9662 238.707C20.5759 239.397 20.044 239.997 19.4053 240.467C18.9711 240.803 18.5071 241.098 18.019 241.349C17.3211 241.709 16.5939 242.009 15.8453 242.246H14.3647C14.5644 242.19 14.7603 242.133 14.96 242.077C15.6685 241.877 16.3642 241.634 17.0432 241.349C17.4312 241.187 17.8086 241.001 18.1734 240.792C19.6878 239.921 20.9499 238.587 21.2136 236.804C21.4434 235.244 20.9988 233.684 20.7351 232.157C20.6899 231.894 20.6485 231.634 20.6259 231.374C20.446 230.052 20.5553 228.707 20.9461 227.432C21.4881 225.841 22.2985 224.354 23.3421 223.037C23.9876 222.18 24.6766 221.356 25.4065 220.569C25.4969 220.467 25.5911 220.365 25.689 220.263C28.3527 217.46 31.4282 215.08 34.8095 213.205H34.8133C37.3274 211.805 39.9947 210.699 42.7621 209.911H42.7659C42.8902 209.873 43.0183 209.836 43.1426 209.802C43.4025 209.734 43.4628 210.145 43.2067 210.216Z" fill="#333333"/>
<path d="M25.5401 220.712C24.6302 219.751 24.0914 218.497 24.0199 217.176C23.9484 215.854 24.3488 214.55 25.1497 213.496C25.3125 213.284 25.6505 213.527 25.4875 213.74C24.7399 214.719 24.3669 215.934 24.436 217.165C24.5051 218.396 25.0117 219.561 25.8643 220.451C26.0493 220.644 25.7241 220.904 25.5401 220.712H25.5401Z" fill="#333333"/>
<path d="M20.8835 231.145C23.5865 231.243 26.2269 230.317 28.2783 228.554C28.4814 228.379 28.742 228.703 28.5391 228.878C26.401 230.709 23.6513 231.667 20.8387 231.559C20.5707 231.549 20.6169 231.135 20.8835 231.145Z" fill="#333333"/>
<path d="M35.157 213.333C35.4316 213.779 35.8125 214.149 36.2654 214.41C36.7182 214.672 37.229 214.817 37.7517 214.832C38.0198 214.839 37.9732 215.253 37.7069 215.246C37.1295 215.226 36.5656 215.065 36.0646 214.778C35.5636 214.49 35.1407 214.083 34.8328 213.594C34.8 213.551 34.7849 213.496 34.7908 213.442C34.7967 213.387 34.823 213.337 34.8645 213.302C34.9076 213.267 34.9625 213.251 35.0173 213.257C35.072 213.263 35.1223 213.291 35.157 213.333Z" fill="#333333"/>
<path d="M172.429 65.2473C172.043 65.7561 171.549 66.1738 170.984 66.4712C170.418 66.7685 169.795 66.9382 169.157 66.9683C168.518 66.9984 167.881 66.8882 167.291 66.6454C166.7 66.4026 166.169 66.0331 165.736 65.563L151.496 71.7587L152.883 63.8062L166.193 59.1418C167.031 58.4669 168.087 58.1228 169.161 58.1747C170.236 58.2266 171.254 58.671 172.022 59.4236C172.791 60.1762 173.257 61.1847 173.332 62.258C173.407 63.3314 173.086 64.395 172.429 65.2473Z" fill="#FFB8B8"/>
<path d="M162.927 67.7302L129.851 82.4689L129.781 82.4436L92.083 69.0048C89.275 67.5367 87.1343 65.0504 86.099 62.0548C85.0638 59.0592 85.2124 55.7811 86.5144 52.8915C87.2361 51.295 88.2876 49.8695 89.5997 48.7089C90.9118 47.5482 92.4548 46.6787 94.127 46.1576C95.7992 45.6365 97.5628 45.4756 99.3017 45.6855C101.041 45.8954 102.715 46.4714 104.216 47.3755L132.27 64.2815L159.473 60.7544L162.927 67.7302Z" fill="#C8C8C8"/>
<path d="M325.5 242.552C325.5 242.61 325.489 242.669 325.466 242.723C325.444 242.778 325.411 242.827 325.369 242.869C325.328 242.911 325.278 242.944 325.224 242.966C325.169 242.989 325.111 243 325.052 243H0.960991C0.842094 243 0.728071 242.953 0.643999 242.869C0.559926 242.785 0.512695 242.67 0.512695 242.552C0.512695 242.433 0.559926 242.319 0.643999 242.234C0.728071 242.15 0.842094 242.103 0.960991 242.103H325.052C325.111 242.103 325.169 242.114 325.224 242.137C325.278 242.159 325.328 242.192 325.369 242.234C325.411 242.276 325.444 242.325 325.466 242.38C325.489 242.434 325.5 242.493 325.5 242.552Z" fill="#CCCCCC"/>
<path d="M118.544 111.853L85.2017 106.518C84.3272 106.238 83.5237 105.772 82.8464 105.152C82.169 104.532 81.6338 103.772 81.2775 102.925C80.9212 102.079 80.7522 101.165 80.7822 100.247C80.8122 99.329 81.0404 98.4283 81.4512 97.6067L82.9633 94.5811L82.3759 62.7934C82.3051 58.6586 83.3241 54.5781 85.3303 50.9623C87.3365 47.3465 90.2592 44.3231 93.8043 42.1961L97.0558 40.2512L98.699 36.0768L113.851 36.4465L113.895 41.9214L119.321 50.5774L119.321 50.6133L118.981 97.7271L117.485 102.589L119.746 108.244L118.544 111.853Z" fill="#C8C8C8"/>
<path d="M107.662 30.886C115.265 30.886 121.429 24.7199 121.429 17.1137C121.429 9.5074 115.265 3.34131 107.662 3.34131C100.059 3.34131 93.895 9.5074 93.895 17.1137C93.895 24.7199 100.059 30.886 107.662 30.886Z" fill="#FFB8B8"/>
<path d="M93.3265 20.1159C92.9159 18.3854 93.1044 15.9502 93.3365 14.2077C93.9448 9.63961 96.4807 5.29677 100.333 2.72436C101.064 2.1693 101.932 1.82419 102.844 1.72624C103.756 1.68818 104.744 2.17629 105.023 3.04491C105.253 2.47162 105.598 1.95149 106.036 1.51662C106.474 1.08175 106.997 0.741368 107.572 0.51649C108.727 0.0738027 109.969 -0.093611 111.2 0.027519C113.586 0.22426 115.874 1.06352 117.822 2.45623C119.769 3.84893 121.304 5.74313 122.262 7.93781C122.63 8.81169 123.657 5.5838 124.123 6.40949C124.551 7.26776 125.298 7.92429 126.204 8.2386C127.117 8.49344 127.487 12.2562 127.847 11.3788C128.125 12.0272 128.235 12.7356 128.167 13.4381C128.098 14.1406 127.853 14.8143 127.454 15.3964C127.055 15.9786 126.515 16.4502 125.885 16.7675C125.255 17.0848 124.554 17.2373 123.849 17.2109C122.92 17.1761 122.032 16.8342 121.114 16.6871C117.83 16.1608 114.348 18.5424 113.646 21.7939C113.394 20.8536 112.993 19.9601 112.457 19.1479C112.185 18.7439 111.82 18.4107 111.393 18.1762C110.967 17.9416 110.49 17.8123 110.003 17.7992C109.069 17.8341 108.248 18.4451 107.642 19.157C107.036 19.8689 106.581 20.6995 105.97 21.4076C104.179 23.4853 101.756 28.3306 99.2025 27.9772C97.1877 27.6983 93.8871 22.4787 93.3265 20.1159Z" fill="#464242"/>
<path d="M190.882 80.8538C190.979 80.2259 190.85 79.5842 190.518 79.0424C190.187 78.5006 189.674 78.0937 189.071 77.894L151.997 65.5413C151.642 65.4224 151.265 65.3791 150.892 65.4144L141.599 66.2935L136.267 66.7995L126.428 67.7297C125.834 67.7865 125.275 68.039 124.84 68.4475C124.405 68.8561 124.118 69.3975 124.023 69.987L119.027 101.206C118.933 101.815 119.049 102.438 119.356 102.972C119.663 103.506 120.143 103.92 120.717 104.144L158.178 118.61C158.354 118.678 158.537 118.727 158.723 118.756C158.994 118.8 159.271 118.802 159.543 118.762L183.749 115.173C184.32 115.091 184.849 114.826 185.258 114.419C185.667 114.012 185.933 113.483 186.018 112.912L190.882 80.8538Z" fill="#333333"/>
<path d="M121.566 101.944L159.027 116.409C159.082 116.431 159.141 116.438 159.199 116.43L183.402 112.841C183.474 112.831 183.541 112.798 183.592 112.747C183.643 112.696 183.677 112.63 183.687 112.558L188.554 80.4987C188.565 80.4204 188.549 80.3407 188.507 80.2733C188.466 80.2058 188.403 80.1547 188.328 80.1288L188.079 80.0444L151.251 67.7789C151.235 67.7729 151.217 67.7687 151.2 67.7664C151.171 67.7611 151.142 67.7596 151.113 67.7619L128.448 69.9075L126.649 70.0763C126.575 70.0842 126.506 70.116 126.452 70.1669C126.398 70.2177 126.362 70.2849 126.35 70.3581L121.355 101.576C121.343 101.652 121.357 101.73 121.395 101.797C121.434 101.864 121.494 101.916 121.566 101.944Z" fill="#1ED760"/>
<path d="M128.448 69.9075L151.113 67.7619C151.142 67.7596 151.171 67.7611 151.2 67.7664C151.217 67.7687 151.235 67.7729 151.251 67.7789L188.079 80.0444L178.365 81.0731L174.729 81.4563L164.384 82.5497C164.354 82.5512 164.323 82.5508 164.293 82.5486C164.275 82.543 164.257 82.5375 164.234 82.5316L128.448 69.9075Z" fill="#464242"/>
<path d="M120.716 104.146L158.177 118.611C158.353 118.679 158.536 118.727 158.723 118.754C158.995 118.799 159.271 118.802 159.544 118.764L183.747 115.176C184.318 115.093 184.847 114.828 185.256 114.42C185.665 114.013 185.932 113.484 186.018 112.913L190.881 80.8537C190.953 80.381 190.899 79.8978 190.724 79.453C190.699 79.3938 190.674 79.3347 190.646 79.279C190.453 78.8728 190.159 78.5229 189.793 78.2623C189.572 78.1039 189.329 77.9798 189.071 77.8943L189.027 77.8787L151.999 65.5409C151.847 65.4927 151.693 65.4551 151.536 65.4286C151.322 65.3983 151.105 65.3941 150.89 65.4161L141.599 66.2922L136.268 66.801L126.426 67.7305C126.024 67.7681 125.635 67.8966 125.289 68.1064C125.263 68.1193 125.237 68.1346 125.213 68.1521C125.196 68.1633 125.179 68.1756 125.164 68.1891C124.862 68.3952 124.605 68.6607 124.409 68.9694C124.213 69.278 124.082 69.6234 124.024 69.9844L119.025 101.206C118.93 101.815 119.046 102.438 119.354 102.973C119.661 103.507 120.141 103.921 120.716 104.146ZM124.687 70.0932C124.748 69.719 124.914 69.3698 125.165 69.0865C125.242 68.9953 125.327 68.9121 125.42 68.8382C125.674 68.6326 125.975 68.4924 126.295 68.4297C126.359 68.4166 126.423 68.4076 126.487 68.4026L143.057 66.8366L150.955 66.0848C151.009 66.0785 151.058 66.0794 151.107 66.0766C151.227 66.0741 151.346 66.083 151.464 66.1032C151.573 66.1172 151.679 66.1426 151.782 66.179L188.855 78.5323C188.884 78.5427 188.91 78.5527 188.939 78.5631C189.276 78.6885 189.572 78.9041 189.795 79.1863C189.972 79.4023 190.1 79.6532 190.173 79.9224C190.246 80.1916 190.261 80.4731 190.218 80.7486L185.35 112.811C185.286 113.239 185.087 113.635 184.781 113.94C184.475 114.246 184.079 114.445 183.652 114.508L159.445 118.096C159.098 118.146 158.745 118.106 158.419 117.979L120.957 103.518C120.528 103.349 120.169 103.038 119.939 102.638C119.709 102.238 119.622 101.771 119.692 101.315L124.687 70.0932Z" fill="#7B7B7B"/>
<path d="M125.083 68.3593C125.103 68.3025 125.138 68.2521 125.184 68.2137C125.2 68.2015 125.216 68.1903 125.233 68.1805C125.249 68.1744 125.265 68.1646 125.281 68.1585C125.356 68.1283 125.439 68.1269 125.516 68.1545L126.295 68.4297L164.388 81.8724L173.303 80.9301L178.292 80.4037L188.851 79.2854L189.796 79.1863L189.979 79.166C190.058 79.1588 190.137 79.1794 190.203 79.2244C190.268 79.2694 190.316 79.3359 190.338 79.4123C190.343 79.4299 190.346 79.448 190.348 79.4662C190.356 79.5388 190.34 79.6119 190.302 79.6746C190.265 79.7373 190.208 79.7861 190.141 79.8137C190.111 79.8261 190.079 79.8345 190.047 79.8388L188.763 79.9735L178.364 81.0731L174.729 81.4563L164.384 82.5497C164.354 82.5512 164.323 82.5508 164.293 82.5486C164.275 82.543 164.256 82.5375 164.234 82.5316L125.42 68.8382L125.288 68.7915C125.258 68.7816 125.23 68.7661 125.206 68.7457C125.147 68.7026 125.103 68.642 125.081 68.5725C125.059 68.503 125.06 68.4283 125.083 68.3593Z" fill="#7B7B7B"/>
<path d="M158.825 118.852C158.738 118.838 158.659 118.79 158.607 118.719C158.555 118.647 158.533 118.557 158.546 118.47L164.015 82.1642C164.028 82.0759 164.076 81.9964 164.148 81.9434C164.219 81.8904 164.309 81.868 164.398 81.8813L164.401 81.8818C164.488 81.8958 164.567 81.9439 164.619 82.0156C164.672 82.0873 164.694 82.1768 164.68 82.2646L159.212 118.57C159.198 118.658 159.15 118.738 159.079 118.791C159.007 118.844 158.917 118.866 158.829 118.853L158.825 118.852Z" fill="#7B7B7B"/>
<path d="M172.688 116.549L169.051 116.933L173.305 80.9291C173.305 80.9291 178.163 80.0493 178.293 80.4021C178.373 80.6127 172.723 116.318 172.688 116.549Z" fill="#7B7B7B"/>
<path d="M125.289 68.791L125.191 85.2101L154.247 96.2855L164.681 82.2645L125.289 68.791Z" fill="#7B7B7B"/>
<path d="M189.797 79.1868C189.554 78.8814 189.227 78.6539 188.856 78.5324L151.785 66.1795C151.68 66.1444 151.574 66.1184 151.465 66.1016C151.347 66.0813 151.227 66.0723 151.107 66.0748L151.167 65.6989L151.538 65.4301L160.342 59.054L189.741 68.0675L189.792 78.2624L189.797 79.1868Z" fill="#7B7B7B"/>
<path d="M126.77 95.1491C126.812 95.1532 126.853 95.1618 126.893 95.1749L138.268 98.9123C138.41 98.959 138.528 99.0605 138.596 99.1943C138.663 99.3281 138.675 99.4833 138.628 99.6257C138.582 99.7682 138.48 99.8862 138.347 99.9539C138.213 100.022 138.058 100.033 137.915 99.9866L126.541 96.2492C126.409 96.2058 126.297 96.1153 126.228 95.9948C126.158 95.8744 126.135 95.7326 126.164 95.5965C126.192 95.4604 126.27 95.3395 126.382 95.257C126.494 95.1744 126.632 95.136 126.77 95.1491H126.77Z" fill="#333333"/>
<path d="M172.664 164.027C175.16 164.027 177.184 162.002 177.184 159.505C177.184 157.007 175.16 154.982 172.664 154.982C170.167 154.982 168.143 157.007 168.143 159.505C168.143 162.002 170.167 164.027 172.664 164.027Z" fill="#F2F2F2"/>
<path d="M57.3864 180.609C59.8831 180.609 61.9071 178.585 61.9071 176.087C61.9071 173.589 59.8831 171.564 57.3864 171.564C54.8897 171.564 52.8657 173.589 52.8657 176.087C52.8657 178.585 54.8897 180.609 57.3864 180.609Z" fill="#F2F2F2"/>
<path d="M151.567 30.9922C154.064 30.9922 156.088 28.9675 156.088 26.4698C156.088 23.9721 154.064 21.9474 151.567 21.9474C149.07 21.9474 147.046 23.9721 147.046 26.4698C147.046 28.9675 149.07 30.9922 151.567 30.9922Z" fill="#F2F2F2"/>
<path d="M158.984 101.8C158.398 102.055 157.764 102.178 157.125 102.161C156.487 102.144 155.859 101.987 155.288 101.701C154.717 101.415 154.215 101.007 153.818 100.506C153.422 100.005 153.139 99.4234 152.992 98.8016L137.542 97.2401L142.639 90.9817L156.529 93.424C157.589 93.2451 158.679 93.4615 159.591 94.0323C160.502 94.6032 161.173 95.4887 161.476 96.5212C161.778 97.5537 161.692 98.6614 161.233 99.6344C160.773 100.607 159.973 101.378 158.984 101.8Z" fill="#FFB8B8"/>
<path d="M149.481 99.3177L113.426 95.9944L113.376 95.9375L87.0619 65.7742C85.3302 63.12 84.6781 59.904 85.2394 56.7845C85.8006 53.6651 87.5325 50.8783 90.0807 48.9947C91.4906 47.9551 93.1046 47.2261 94.8164 46.8555C96.5283 46.4849 98.2992 46.4813 100.013 46.8447C101.726 47.2082 103.343 47.9306 104.757 48.9643C106.171 49.998 107.351 51.3196 108.217 52.8421L124.425 81.3125L149.878 91.5434L149.481 99.3177Z" fill="#C8C8C8"/>
<path d="M239.979 41.3112C239.084 34.7409 237.961 27.6867 233.328 22.9437C231.858 21.4388 230.099 20.2472 228.157 19.4408C226.214 18.6344 224.128 18.2299 222.025 18.2517C219.922 18.2735 217.845 18.7211 215.92 19.5675C213.994 20.414 212.26 21.6417 210.821 23.1768C207.449 26.7754 205.96 31.8285 205.824 36.7591C205.688 41.6897 206.785 46.5655 208.003 51.3452C214.447 51.474 220.844 50.2145 226.759 47.6521C228.238 47.0099 229.693 46.2839 231.255 45.886C232.818 45.4881 233.932 46.4893 235.385 47.1875L236.183 45.6591C236.836 46.8751 238.859 46.5146 239.593 45.3454C240.326 44.1762 240.165 42.6789 239.979 41.3112Z" fill="#464242"/>
<path d="M214.435 77.9838L188.111 78.547C187.706 77.848 187.108 77.2815 186.388 76.9166C185.667 76.5516 184.857 76.404 184.054 76.4915C183.252 76.5791 182.492 76.8981 181.867 77.4098C181.243 77.9215 180.78 78.6037 180.536 79.3735C180.292 80.1433 180.277 80.9675 180.493 81.7458C180.708 82.524 181.145 83.2228 181.751 83.7571C182.356 84.2914 183.104 84.6382 183.902 84.7552C184.701 84.8723 185.517 84.7545 186.25 84.4163C189.741 84.6148 217.055 88.4931 218.685 85.9937C220.338 83.457 229.167 74.5044 229.167 74.5044L222.381 64.8401L214.435 77.9838Z" fill="#9E616A"/>
<path d="M220.849 47.8116C227.68 47.8116 233.217 42.2722 233.217 35.4389C233.217 28.6057 227.68 23.0663 220.849 23.0663C214.019 23.0663 208.481 28.6057 208.481 35.4389C208.481 42.2722 214.019 47.8116 220.849 47.8116Z" fill="#9E616A"/>
<path d="M240.659 59.2453C239.201 56.3435 238.493 52.7586 235.386 51.8179C233.288 51.1826 224.801 52.1346 222.889 53.207C219.708 54.9907 222.59 58.3333 220.714 61.4612C218.674 64.8616 213.13 71.6856 211.089 75.0859C209.687 77.4236 214.411 84.2851 213.653 86.9038C212.895 89.5225 212.858 92.4616 214.15 94.8622C215.306 97.0109 213.633 98.9117 214.796 101.057C216.005 103.288 217.489 111.629 216.364 113.903L215.61 116.165C223.087 116.604 229.374 107.668 236.804 106.727C238.649 106.493 240.566 106.188 242.086 105.116C244.327 103.538 245.212 100.673 245.766 97.9887C248.429 84.8658 246.632 71.2288 240.659 59.2453Z" fill="#7B7B7B"/>
<path d="M251.868 89.8854C250.827 87.0416 248.941 74.6083 248.941 74.6083L237.141 74.2622L242.91 88.4973L227.167 110.545C227.167 110.545 227.196 110.594 227.249 110.68C226.421 110.547 225.573 110.667 224.814 111.025C224.056 111.382 223.423 111.961 222.999 112.684C222.574 113.407 222.378 114.242 222.436 115.078C222.493 115.915 222.802 116.715 223.321 117.373C223.84 118.031 224.546 118.518 225.346 118.768C226.147 119.018 227.004 119.021 227.805 118.776C228.607 118.531 229.316 118.05 229.84 117.395C230.364 116.74 230.678 115.943 230.741 115.106C230.799 115.14 230.867 115.152 230.933 115.14C230.999 115.129 231.058 115.095 231.102 115.044C232.854 112.845 252.91 92.7291 251.868 89.8854Z" fill="#9E616A"/>
<path d="M253.068 82.0333C251.985 77.4601 250.894 72.862 249.068 68.5317C247.242 64.2014 244.627 60.1114 240.95 57.1859C239.775 56.2506 238.461 55.4251 236.987 55.1343C235.514 54.8435 233.853 55.1689 232.818 56.2579C231.162 58.0003 231.66 60.7973 232.268 63.1236C234.059 69.9828 235.85 76.8419 237.641 83.7011C242.813 83.1527 247.985 82.6042 253.157 82.0557L253.068 82.0333Z" fill="#7B7B7B"/>
<path d="M236.004 37.1551C235.549 34.162 235.073 31.1439 234.003 28.3256C232.933 25.5073 231.208 22.8676 228.734 21.2711C224.816 18.7434 219.744 19.2309 215.352 20.6849C211.956 21.8093 208.64 23.5184 206.245 26.2661C203.849 29.0137 202.504 32.9343 203.395 36.5269C208.08 35.4196 212.765 34.3123 217.45 33.2049L216.937 33.5675C218.476 34.3348 219.819 35.4427 220.865 36.807C221.912 38.1713 222.634 39.7562 222.977 41.4413C223.312 43.1469 223.263 44.9056 222.836 46.5903C222.408 48.275 221.611 49.8436 220.503 51.1825C223.698 50.0485 226.894 48.9146 230.089 47.7807C232.061 47.0809 234.172 46.2744 235.341 44.4792C236.697 42.3978 236.382 39.6391 236.004 37.1551Z" fill="#464242"/>
</g>
<defs>
<clipPath id="clip0_143_564">
<rect width="325" height="243" fill="white" transform="translate(0.5)"/>
</clipPath>
</defs>
</svg>
